# xmcd
#
# Track frame offsets: 
#        150
#        13047
#        26086
#        36397
#        45029
#        52752
#        66014
#        77646
#        90739
#        103389
#        115992
#        124039
#        137134
#        149363
#        162652
#        176258
#        189975
#        199691
#        211846
#        222750
#        232992
#        246621
#        263204
#        276456
#        288060
#
# Disc length: 3994 seconds
#
# Revision: 0
# Processed by: cddbd v1.5.2PL0 Copyright (c) Steve Scherf et al.
# Submitted via: ExactAudioCopy v1.0b2
#
DISCID=6b0f9819
DTITLE=Essential West Coast Blues  - Essential West Coast Blues 
DYEAR=2012
DGENRE=Blues
TTITLE0=T-Bone Walker - Two Bones And A Pick
TTITLE1=Joe Liggins and his Orchestra - Yeah, Yeah, Yeah
TTITLE2=Little Willie John - Need Your Love So Bad
TTITLE3=Lowell Fulson - Lowell Jumps Once (Cash Bow Boogie)
TTITLE4=Big Mama Thornton - I Smell A Rat
TTITLE5=Albert King - Don't Throw Your Love On Me So Strong
TTITLE6=Ray Charles - Hallelujah, I Love Her So
TTITLE7=Big Joe Turner - Corrine, Corrina
TTITLE8=Mel Walker - Feelin' Mighty Lonesome
TTITLE9=Rolee McGill - In My Neighbourhood
TTITLE10=Big Jay McNeely - Calamity
TTITLE11=Percy Mayfield - Please Send Me Someone To Love
TTITLE12=Amos Milburn - Atomic Baby
TTITLE13=Saunders King - Unfaithful Blues
TTITLE14=Jesse Price and his Blues Band - My Baby Done Left Me
TTITLE15=Herb Jeffries with Joe Liggins - I Left A Good Deal In Mobile
TTITLE16=Big Joe Turner - (We're Gonna) Jump For You
TTITLE17=Pee Wee Crayton with the Maxwell Davis All Stars - Daybreak
TTITLE18=Smokey Hogg - When I've Been Drinkin'
TTITLE19=Mel Walker with Johnny Otis - The Candle's Burning Low
TTITLE20=Eddie "Cleanhead" Vinson and his Orchestra - Kidney Stew Blue
TTITLE20=s
TTITLE21=Charles Brown - So Mistreated
TTITLE22=Jimmy Witherspoon - Ain't Nobody's Business
TTITLE23=Pee Wee Crayton - When It Rains It Pours
TTITLE24=Frank Motley and his Crew - New Hound Dog
EXTD=
EXTT0=
EXTT1=
EXTT2=
EXTT3=
EXTT4=
EXTT5=
EXTT6=
EXTT7=
EXTT8=
EXTT9=
EXTT10=
EXTT11=
EXTT12=
EXTT13=
EXTT14=
EXTT15=
EXTT16=
EXTT17=
EXTT18=
EXTT19=
EXTT20=
EXTT21=
EXTT22=
EXTT23=
EXTT24=
PLAYORDER=
